# xmcd
#
# Track frame offsets:
#	150
#	14800
#	30625
#	46880
#	62995
#	79302
#	95132
#	109742
#	124100
#	138587
#
# Disc length: 2059 seconds
#
# Revision: 0
# Processed by: cddbd v1.5.1PL0 Copyright (c) Steve Scherf et al.
# Submitted via: dBpowerAMP V4.0
#
DISCID=9008090a
DTITLE=Nathalie PAQUE - Chante-nous la vie
DYEAR=1998
DGENRE=Chanson
TTITLE0=CHANTE-NOUS LA VIE
TTITLE1=REVER ET DANSER
TTITLE2=QU'IMPORTENT MES VINGT ANS
TTITLE3=MAMA, C'EST L'HEURE
TTITLE4=PASSAGER
TTITLE5=OUBLIER
TTITLE6=SOIS PAS JALOUX
TTITLE7=MONTREAL
TTITLE8=ET BYE-BYE BABY
TTITLE9=D'UN AMOUR GEANT
EXTD=
EXTT0=
EXTT1=
EXTT2=
EXTT3=
EXTT4=
EXTT5=
EXTT6=
EXTT7=
EXTT8=
EXTT9=
PLAYORDER=
